<?xml version="1.0" encoding="UTF-8" standalone="no"?>
<!-- Generator: Adobe Illustrator 14.0.0, SVG Export Plug-In . SVG Version: 6.00 Build 43363)  -->

<svg
   xmlns:dc="http://purl.org/dc/elements/1.1/"
   xmlns:cc="http://creativecommons.org/ns#"
   xmlns:rdf="http://www.w3.org/1999/02/22-rdf-syntax-ns#"
   xmlns:svg="http://www.w3.org/2000/svg"
   xmlns="http://www.w3.org/2000/svg"
   xmlns:sodipodi="http://sodipodi.sourceforge.net/DTD/sodipodi-0.dtd"
   xmlns:inkscape="http://www.inkscape.org/namespaces/inkscape"
   version="1.1"
   id="Layer_1"
   x="0px"
   y="0px"
   width="54px"
   height="36px"
   viewBox="0 0 54 36"
   enable-background="new 0 0 54 36"
   xml:space="preserve"
   inkscape:version="0.48.5 r10040"
   sodipodi:docname="gettemperature.svg"><metadata
     id="metadata35"><rdf:RDF><cc:Work
         rdf:about=""><dc:format>image/svg+xml</dc:format><dc:type
           rdf:resource="http://purl.org/dc/dcmitype/StillImage" /><dc:title></dc:title></cc:Work></rdf:RDF></metadata><defs
     id="defs33" /><sodipodi:namedview
     pagecolor="#ffffff"
     bordercolor="#666666"
     borderopacity="1"
     objecttolerance="10"
     gridtolerance="10"
     guidetolerance="10"
     inkscape:pageopacity="0"
     inkscape:pageshadow="2"
     inkscape:window-width="1837"
     inkscape:window-height="761"
     id="namedview31"
     showgrid="false"
     inkscape:zoom="6.2592592"
     inkscape:cx="-10.983268"
     inkscape:cy="45.666675"
     inkscape:window-x="2160"
     inkscape:window-y="420"
     inkscape:window-maximized="0"
     inkscape:current-layer="Layer_1" /><path
     style="fill:#009344"
     inkscape:connector-curvature="0"
     id="path5"
     d="m 20.80158,37.120686 h 2.965 v 0.831 h -1.021 v 6.213 h -0.893 v -6.213 h -1.051 v -0.831 z" /><path
     style="fill:#009344"
     inkscape:connector-curvature="0"
     id="path7"
     d="m 24.18058,37.120686 h 2.422 v 0.804 h -1.511 v 2.23 h 1.34 v 0.803 h -1.34 v 2.404 h 1.511 v 0.803 h -2.422 v -7.044 z" /><path
     style="fill:#009344"
     inkscape:connector-curvature="0"
     id="path9"
     d="m 27.66858,37.120686 h 0.78 l 0.595,2.874 c 0.073,0.359 0.14,0.719 0.199,1.079 0.06,0.36 0.115,0.738 0.165,1.134 0.006,-0.052 0.01,-0.092 0.013,-0.121 0.003,-0.028 0.006,-0.049 0.009,-0.062 l 0.127,-0.808 0.114,-0.766 0.101,-0.507 0.53,-2.824 h 0.789 l 0.622,7.044 h -0.871 l -0.153,-2.391 c -0.006,-0.121 -0.011,-0.227 -0.016,-0.314 -0.005,-0.087 -0.006,-0.161 -0.006,-0.219 l -0.04,-0.944 -0.022,-0.867 c 0,-0.006 0,-0.019 -0.002,-0.039 -0.001,-0.02 -0.004,-0.046 -0.007,-0.079 l -0.022,0.141 c -0.023,0.168 -0.044,0.313 -0.063,0.438 -0.019,0.125 -0.036,0.229 -0.05,0.314 l -0.114,0.644 -0.044,0.242 -0.569,3.074 h -0.615 l -0.534,-2.655 c -0.073,-0.35 -0.138,-0.704 -0.195,-1.064 -0.057,-0.361 -0.108,-0.738 -0.155,-1.134 l -0.263,4.854 h -0.858 l 0.555,-7.044 z" /><path
     style="fill:#009344"
     inkscape:connector-curvature="0"
     id="path11"
     d="m 32.37458,37.120686 h 1.2 c 0.578,0 0.999,0.152 1.261,0.457 0.263,0.307 0.394,0.793 0.394,1.459 0,0.938 -0.264,1.542 -0.792,1.816 -0.266,0.124 -0.65,0.187 -1.152,0.187 v 3.125 h -0.911 v -7.044 z m 0.911,3.107 c 0.376,0 0.636,-0.079 0.779,-0.237 0.146,-0.161 0.219,-0.447 0.219,-0.858 0,-0.419 -0.07,-0.727 -0.21,-0.921 -0.14,-0.194 -0.36,-0.292 -0.661,-0.292 h -0.127 v 2.308 z" /><path
     style="fill:#009344"
     inkscape:connector-curvature="0"
     id="path13"
     d="m 35.84058,37.120686 h 2.422 v 0.804 h -1.511 v 2.23 h 1.34 v 0.803 h -1.34 v 2.404 h 1.511 v 0.803 h -2.422 v -7.044 z" /><path
     style="fill:#009344"
     inkscape:connector-curvature="0"
     id="path15"
     d="m 39.00858,37.120686 h 1.2 c 0.496,0 0.866,0.124 1.108,0.37 0.307,0.319 0.46,0.808 0.46,1.464 0,0.505 -0.081,0.91 -0.243,1.216 -0.162,0.306 -0.394,0.495 -0.694,0.568 l 1.244,3.426 h -0.924 l -1.239,-3.449 v 3.449 h -0.912 v -7.044 z m 0.911,3.121 c 0.353,0 0.603,-0.086 0.749,-0.256 0.146,-0.17 0.219,-0.458 0.219,-0.862 0,-0.219 -0.015,-0.406 -0.046,-0.561 -0.031,-0.155 -0.079,-0.281 -0.145,-0.379 -0.066,-0.098 -0.15,-0.169 -0.254,-0.215 -0.104,-0.045 -0.227,-0.068 -0.37,-0.068 h -0.153 v 2.341 z" /><path
     style="fill:#009344"
     inkscape:connector-curvature="0"
     id="path17"
     d="m 43.66158,37.120686 h 0.711 l 1.449,7.044 h -0.902 l -0.254,-1.373 h -1.34 l -0.259,1.373 h -0.876 l 1.471,-7.044 z m 0.873,4.936 -0.203,-1.122 c -0.133,-0.764 -0.242,-1.579 -0.328,-2.445 -0.041,0.423 -0.094,0.851 -0.156,1.284 -0.064,0.434 -0.141,0.894 -0.229,1.38 l -0.166,0.903 h 1.082 z" /><path
     style="fill:#009344"
     inkscape:connector-curvature="0"
     id="path19"
     d="m 45.58258,37.120686 h 2.965 v 0.831 h -1.021 v 6.213 h -0.894 v -6.213 h -1.051 v -0.831 z" /><path
     style="fill:#009344"
     inkscape:connector-curvature="0"
     id="path21"
     d="m 48.96158,37.120686 h 0.893 v 4.978 c 0,0.508 0.044,0.846 0.132,1.013 0.091,0.167 0.269,0.251 0.534,0.251 0.265,0 0.441,-0.073 0.525,-0.219 0.088,-0.149 0.132,-0.452 0.132,-0.908 v -5.114 h 0.894 v 5.114 c 0,0.767 -0.112,1.285 -0.338,1.556 -0.269,0.308 -0.679,0.461 -1.23,0.461 -0.607,0 -1.035,-0.198 -1.283,-0.594 -0.172,-0.271 -0.258,-0.79 -0.258,-1.56 v -4.978 z" /><path
     style="fill:#009344"
     inkscape:connector-curvature="0"
     id="path23"
     d="m 53.02358,37.120686 h 1.199 c 0.497,0 0.866,0.124 1.108,0.37 0.307,0.319 0.46,0.808 0.46,1.464 0,0.505 -0.081,0.91 -0.243,1.216 -0.162,0.306 -0.394,0.495 -0.694,0.568 l 1.244,3.426 h -0.924 l -1.24,-3.449 v 3.449 h -0.91 v -7.044 z m 0.911,3.121 c 0.354,0 0.604,-0.086 0.749,-0.256 0.146,-0.17 0.22,-0.458 0.22,-0.862 0,-0.219 -0.016,-0.406 -0.047,-0.561 -0.03,-0.155 -0.078,-0.281 -0.145,-0.379 -0.065,-0.098 -0.15,-0.169 -0.254,-0.215 -0.104,-0.045 -0.227,-0.068 -0.37,-0.068 h -0.153 v 2.341 z" /><path
     style="fill:#009344"
     inkscape:connector-curvature="0"
     id="path25"
     d="m 56.71358,37.120686 h 2.422 v 0.804 h -1.512 v 2.23 h 1.341 v 0.803 h -1.341 v 2.404 h 1.512 v 0.803 h -2.422 v -7.044 z" /><path
     fill="#009344"
     d="M47.744,3.931H6.153c-1.799,0-3.256,1.457-3.256,3.256v22.776c0,1.797,1.457,3.256,3.256,3.256h41.591  c1.799,0,3.256-1.459,3.256-3.256V7.187C51,5.388,49.543,3.931,47.744,3.931z M48.77,28.971c0,1.15-0.934,2.084-2.082,2.084H7.041  c-1.151,0-2.083-0.934-2.083-2.084v-8.184c0-1.15,0.932-2.082,2.083-2.082h14.746c0.973,1.049,2.355,1.688,3.871,1.688  c0.545,0,1.084-0.085,1.623-0.258c0.859-0.287,1.602-0.79,2.199-1.43h17.208c1.148,0,2.082,0.931,2.082,2.082V28.971z"
     id="path27"
     inkscape:export-filename="/home/kgillespie/air_projects/air_everywhere/air_element_libraries/tmp006/element_code/getAmbientTemperature.icon.png"
     inkscape:export-xdpi="187.44879"
     inkscape:export-ydpi="187.44879" /><path
     fill="#FFFFFF"
     d="M47.695,10.412l-18.611,5.989c-0.379,1.007-1.193,1.845-2.312,2.219c-1.909,0.612-4-0.436-4.613-2.347  c-0.591-1.937,0.439-4,2.365-4.642c1.131-0.327,2.293-0.145,3.19,0.5l18.61-5.99c1.164-0.389,2.459,0.278,2.814,1.426  c0.37,1.196-0.279,2.457-1.445,2.845L47.695,10.412z M44.439,8.402l-17.818,5.752c-0.387-0.389-0.948-0.551-1.467-0.36  c-0.763,0.254-1.176,1.037-0.92,1.797c0.224,0.742,1.037,1.177,1.798,0.923c0.535-0.146,0.896-0.63,0.974-1.116l17.817-5.751  c0.341-0.091,0.551-0.456,0.432-0.813C45.163,8.495,44.779,8.313,44.439,8.402L44.439,8.402z"
     id="path29" /><path
     id="path5-2"
     d="m 2.2987066,37.193517 h 0.911 v 6.241 h 1.489 v 0.803 h -2.4 v -7.044 z"
     inkscape:connector-curvature="0"
     style="fill:#009344" /><path
     id="path7-9"
     d="m 5.1787066,37.193517 h 0.911 v 7.044 h -0.911 v -7.044 z"
     inkscape:connector-curvature="0"
     style="fill:#009344" /><path
     id="path11-3"
     d="m 11.134707,37.193517 h 0.911 v 2.756 h 1.335 v -2.756 h 0.911 v 7.044 h -0.911 v -3.485 h -1.335 v 3.485 h -0.911 v -7.044 z"
     inkscape:connector-curvature="0"
     style="fill:#009344" /><path
     id="path13-5"
     d="m 14.706707,37.193517 h 2.965 v 0.831 h -1.021 v 6.213 h -0.893 v -6.213 h -1.051 v -0.831 z"
     inkscape:connector-curvature="0"
     style="fill:#009344" /><g
     id="g3194"
     transform="translate(38.821348,30.195266)"><g
       transform="matrix(0.81545828,0,0,0.81545828,2.4863517,-15.971104)"
       id="g3101"><path
         id="path9-5"
         d="m 5.7070853,50.208748 h 1.6550004 v 0.273 c 0,1.372 -0.115,2.298 -0.3460004,2.778 -0.228,0.493 -0.654,0.739 -1.279,0.739 -0.646,0 -1.105,-0.274 -1.38,-0.821 -0.271,-0.548 -0.407,-1.468 -0.407,-2.76 0,-1.479 0.149,-2.462 0.447,-2.952 0.28,-0.459 0.711,-0.688 1.292,-0.688 0.444,0 0.79,0.111 1.038,0.333 0.251,0.226 0.4460004,0.595 0.5860004,1.108 l -0.8500004,0.37 c -0.038,-0.186 -0.08,-0.342 -0.127,-0.468 -0.046,-0.126 -0.098,-0.225 -0.153,-0.295 -0.111,-0.143 -0.277,-0.214 -0.499,-0.214 -0.304,0 -0.511,0.194 -0.622,0.584 -0.111,0.407 -0.166,1.139 -0.166,2.194 0,1.067 0.057,1.789 0.17,2.167 0.114,0.377 0.329,0.565 0.644,0.565 0.289,0 0.492,-0.134 0.609,-0.401 0.12,-0.286 0.179,-0.745 0.179,-1.378 v -0.191 -0.142 h -0.792 v -0.801 z"
         inkscape:connector-curvature="0"
         style="fill:#009344" /><path
         d="m 7.7664788,46.866248 h 2.4220002 v 0.804 H 8.6774788 v 2.23 h 1.3400002 v 0.803 H 8.6774788 v 2.404 h 1.5110002 v 0.803 H 7.7664788 v -7.044 z"
         id="path3062"
         inkscape:connector-curvature="0"
         style="fill:#009344" /><path
         d="m 10.816372,46.866248 h 2.965 v 0.831 h -1.021 v 6.213 h -0.893 v -6.213 h -1.051 v -0.831 z"
         id="path3064"
         inkscape:connector-curvature="0"
         style="fill:#009344" /></g><g
       transform="matrix(0.81545828,0,0,0.81545828,-0.51009557,-8.0594775)"
       id="g3088"><path
         d="m 20.80158,37.120686 h 2.965 v 0.831 h -1.021 v 6.213 h -0.893 v -6.213 h -1.051 v -0.831 z"
         id="path3066"
         inkscape:connector-curvature="0"
         style="fill:#009344" /><path
         d="m 24.18058,37.120686 h 2.422 v 0.804 h -1.511 v 2.23 h 1.34 v 0.803 h -1.34 v 2.404 h 1.511 v 0.803 h -2.422 v -7.044 z"
         id="path3068"
         inkscape:connector-curvature="0"
         style="fill:#009344" /><path
         d="m 27.66858,37.120686 h 0.78 l 0.595,2.874 c 0.073,0.359 0.14,0.719 0.199,1.079 0.06,0.36 0.115,0.738 0.165,1.134 0.006,-0.052 0.01,-0.092 0.013,-0.121 0.003,-0.028 0.006,-0.049 0.009,-0.062 l 0.127,-0.808 0.114,-0.766 0.101,-0.507 0.53,-2.824 h 0.789 l 0.622,7.044 h -0.871 l -0.153,-2.391 c -0.006,-0.121 -0.011,-0.227 -0.016,-0.314 -0.005,-0.087 -0.006,-0.161 -0.006,-0.219 l -0.04,-0.944 -0.022,-0.867 c 0,-0.006 0,-0.019 -0.002,-0.039 -0.001,-0.02 -0.004,-0.046 -0.007,-0.079 l -0.022,0.141 c -0.023,0.168 -0.044,0.313 -0.063,0.438 -0.019,0.125 -0.036,0.229 -0.05,0.314 l -0.114,0.644 -0.044,0.242 -0.569,3.074 h -0.615 l -0.534,-2.655 c -0.073,-0.35 -0.138,-0.704 -0.195,-1.064 -0.057,-0.361 -0.108,-0.738 -0.155,-1.134 l -0.263,4.854 h -0.858 l 0.555,-7.044 z"
         id="path3070"
         inkscape:connector-curvature="0"
         style="fill:#009344" /><path
         d="m 32.37458,37.120686 h 1.2 c 0.578,0 0.999,0.152 1.261,0.457 0.263,0.307 0.394,0.793 0.394,1.459 0,0.938 -0.264,1.542 -0.792,1.816 -0.266,0.124 -0.65,0.187 -1.152,0.187 v 3.125 h -0.911 v -7.044 z m 0.911,3.107 c 0.376,0 0.636,-0.079 0.779,-0.237 0.146,-0.161 0.219,-0.447 0.219,-0.858 0,-0.419 -0.07,-0.727 -0.21,-0.921 -0.14,-0.194 -0.36,-0.292 -0.661,-0.292 h -0.127 v 2.308 z"
         id="path3072"
         inkscape:connector-curvature="0"
         style="fill:#009344" /><path
         d="m 35.84058,37.120686 h 2.422 v 0.804 h -1.511 v 2.23 h 1.34 v 0.803 h -1.34 v 2.404 h 1.511 v 0.803 h -2.422 v -7.044 z"
         id="path3074"
         inkscape:connector-curvature="0"
         style="fill:#009344" /><path
         d="m 39.00858,37.120686 h 1.2 c 0.496,0 0.866,0.124 1.108,0.37 0.307,0.319 0.46,0.808 0.46,1.464 0,0.505 -0.081,0.91 -0.243,1.216 -0.162,0.306 -0.394,0.495 -0.694,0.568 l 1.244,3.426 h -0.924 l -1.239,-3.449 v 3.449 h -0.912 v -7.044 z m 0.911,3.121 c 0.353,0 0.603,-0.086 0.749,-0.256 0.146,-0.17 0.219,-0.458 0.219,-0.862 0,-0.219 -0.015,-0.406 -0.046,-0.561 -0.031,-0.155 -0.079,-0.281 -0.145,-0.379 -0.066,-0.098 -0.15,-0.169 -0.254,-0.215 -0.104,-0.045 -0.227,-0.068 -0.37,-0.068 h -0.153 v 2.341 z"
         id="path3076"
         inkscape:connector-curvature="0"
         style="fill:#009344" /><path
         d="m 43.66158,37.120686 h 0.711 l 1.449,7.044 h -0.902 l -0.254,-1.373 h -1.34 l -0.259,1.373 h -0.876 l 1.471,-7.044 z m 0.873,4.936 -0.203,-1.122 c -0.133,-0.764 -0.242,-1.579 -0.328,-2.445 -0.041,0.423 -0.094,0.851 -0.156,1.284 -0.064,0.434 -0.141,0.894 -0.229,1.38 l -0.166,0.903 h 1.082 z"
         id="path3078"
         inkscape:connector-curvature="0"
         style="fill:#009344" /><path
         d="m 45.58258,37.120686 h 2.965 v 0.831 h -1.021 v 6.213 h -0.894 v -6.213 h -1.051 v -0.831 z"
         id="path3080"
         inkscape:connector-curvature="0"
         style="fill:#009344" /><path
         d="m 48.96158,37.120686 h 0.893 v 4.978 c 0,0.508 0.044,0.846 0.132,1.013 0.091,0.167 0.269,0.251 0.534,0.251 0.265,0 0.441,-0.073 0.525,-0.219 0.088,-0.149 0.132,-0.452 0.132,-0.908 v -5.114 h 0.894 v 5.114 c 0,0.767 -0.112,1.285 -0.338,1.556 -0.269,0.308 -0.679,0.461 -1.23,0.461 -0.607,0 -1.035,-0.198 -1.283,-0.594 -0.172,-0.271 -0.258,-0.79 -0.258,-1.56 v -4.978 z"
         id="path3082"
         inkscape:connector-curvature="0"
         style="fill:#009344" /><path
         d="m 53.02358,37.120686 h 1.199 c 0.497,0 0.866,0.124 1.108,0.37 0.307,0.319 0.46,0.808 0.46,1.464 0,0.505 -0.081,0.91 -0.243,1.216 -0.162,0.306 -0.394,0.495 -0.694,0.568 l 1.244,3.426 h -0.924 l -1.24,-3.449 v 3.449 h -0.91 v -7.044 z m 0.911,3.121 c 0.354,0 0.604,-0.086 0.749,-0.256 0.146,-0.17 0.22,-0.458 0.22,-0.862 0,-0.219 -0.016,-0.406 -0.047,-0.561 -0.03,-0.155 -0.078,-0.281 -0.145,-0.379 -0.065,-0.098 -0.15,-0.169 -0.254,-0.215 -0.104,-0.045 -0.227,-0.068 -0.37,-0.068 h -0.153 v 2.341 z"
         id="path3084"
         inkscape:connector-curvature="0"
         style="fill:#009344" /><path
         d="m 56.71358,37.120686 h 2.422 v 0.804 h -1.512 v 2.23 h 1.341 v 0.803 h -1.341 v 2.404 h 1.512 v 0.803 h -2.422 v -7.044 z"
         id="path3086"
         inkscape:connector-curvature="0"
         style="fill:#009344" /></g></g><path
     id="path5-4"
     d="m -32.626861,46.22115 h 0.78 l 0.595,2.874 c 0.073,0.359 0.14,0.719 0.199,1.079 0.06,0.36 0.115,0.738 0.165,1.134 0.006,-0.052 0.01,-0.092 0.013,-0.121 0.003,-0.028 0.006,-0.049 0.009,-0.062 l 0.127,-0.808 0.114,-0.766 0.101,-0.507 0.53,-2.824 h 0.789 l 0.622,7.044 h -0.871 l -0.153,-2.391 c -0.006,-0.121 -0.011,-0.227 -0.016,-0.314 -0.005,-0.087 -0.006,-0.161 -0.006,-0.219 l -0.04,-0.944 -0.022,-0.867 c 0,-0.006 0,-0.019 -0.002,-0.039 -10e-4,-0.02 -0.004,-0.046 -0.007,-0.079 l -0.022,0.141 c -0.023,0.168 -0.044,0.313 -0.063,0.438 -0.019,0.125 -0.036,0.229 -0.05,0.314 l -0.114,0.644 -0.044,0.242 -0.571,3.075 h -0.613 l -0.534,-2.655 c -0.073,-0.35 -0.138,-0.704 -0.195,-1.064 -0.057,-0.361 -0.108,-0.738 -0.155,-1.134 l -0.263,4.854 h -0.859 l 0.556,-7.045 z"
     inkscape:connector-curvature="0"
     style="fill:#009344" /><path
     id="path7-0"
     d="m -24.535861,49.91615 c 0,1.244 -0.133,2.128 -0.398,2.65 -0.266,0.523 -0.711,0.785 -1.335,0.785 -0.657,0 -1.12,-0.281 -1.389,-0.844 -0.266,-0.551 -0.398,-1.528 -0.398,-2.934 0,-1.253 0.131,-2.14 0.394,-2.66 0.266,-0.522 0.715,-0.784 1.349,-0.784 0.566,0 0.987,0.202 1.261,0.606 0.181,0.271 0.312,0.655 0.394,1.154 0.082,0.465 0.122,1.139 0.122,2.027 z m -0.955,0.101 c 0,-1.22 -0.053,-2.028 -0.158,-2.427 -0.105,-0.401 -0.32,-0.603 -0.644,-0.603 -0.324,0 -0.54,0.185 -0.648,0.552 -0.105,0.371 -0.158,1.116 -0.158,2.235 0,1.031 0.056,1.746 0.167,2.145 0.114,0.377 0.327,0.565 0.64,0.565 0.307,0 0.517,-0.176 0.63,-0.529 0.115,-0.349 0.171,-0.996 0.171,-1.938 z"
     inkscape:connector-curvature="0"
     style="fill:#009344" /><path
     id="path9-7"
     d="m -23.722861,46.22115 h 0.911 v 7.044 h -0.911 v -7.044 z"
     inkscape:connector-curvature="0"
     style="fill:#009344" /><path
     id="path11-7"
     d="m -19.603861,46.36715 v 0.926 c -0.277,-0.207 -0.527,-0.31 -0.749,-0.31 -0.24,0 -0.435,0.088 -0.587,0.264 -0.152,0.168 -0.228,0.392 -0.228,0.671 0,0.246 0.054,0.458 0.162,0.634 0.056,0.095 0.147,0.217 0.274,0.365 0.127,0.149 0.291,0.329 0.493,0.538 0.371,0.393 0.623,0.731 0.757,1.018 0.134,0.277 0.202,0.616 0.202,1.018 0,0.544 -0.147,0.993 -0.442,1.346 -0.295,0.344 -0.673,0.516 -1.134,0.516 -0.388,0 -0.72,-0.111 -0.994,-0.333 v -0.94 c 0.324,0.247 0.619,0.37 0.885,0.37 0.248,0 0.442,-0.086 0.583,-0.258 0.141,-0.172 0.21,-0.405 0.21,-0.7 0,-0.256 -0.054,-0.485 -0.162,-0.689 -0.056,-0.097 -0.133,-0.209 -0.232,-0.335 -0.099,-0.126 -0.223,-0.267 -0.372,-0.422 -0.231,-0.237 -0.422,-0.447 -0.574,-0.63 -0.152,-0.182 -0.264,-0.342 -0.337,-0.479 -0.14,-0.268 -0.21,-0.605 -0.21,-1.013 0,-0.551 0.137,-0.987 0.412,-1.31 0.277,-0.325 0.649,-0.488 1.117,-0.488 0.322,-0.001 0.631,0.08 0.926,0.241 z"
     inkscape:connector-curvature="0"
     style="fill:#009344" /><path
     id="path13-55"
     d="m -19.032861,46.22115 h 2.965 v 0.831 h -1.021 v 6.213 h -0.893 v -6.213 h -1.051 v -0.831 z"
     inkscape:connector-curvature="0"
     style="fill:#009344" /><path
     id="path15-3"
     d="m -15.653861,46.22115 h 0.894 v 4.978 c 0,0.508 0.044,0.846 0.131,1.013 0.09,0.167 0.269,0.251 0.534,0.251 0.265,0 0.441,-0.073 0.526,-0.219 0.087,-0.149 0.131,-0.452 0.131,-0.908 v -5.114 h 0.893 v 5.114 c 0,0.767 -0.112,1.285 -0.337,1.556 -0.269,0.308 -0.679,0.461 -1.231,0.461 -0.607,0 -1.035,-0.198 -1.283,-0.594 -0.172,-0.271 -0.258,-0.79 -0.258,-1.56 v -4.978 z"
     inkscape:connector-curvature="0"
     style="fill:#009344" /><path
     id="path17-4"
     d="m -11.591861,46.22115 h 1.2 c 0.497,0 0.866,0.124 1.108,0.37 0.307,0.319 0.46,0.808 0.46,1.464 0,0.505 -0.081,0.91 -0.243,1.216 -0.162,0.306 -0.394,0.495 -0.694,0.568 l 1.244,3.426 h -0.924 l -1.24,-3.449 v 3.449 h -0.911 v -7.044 z m 0.911,3.121 c 0.354,0 0.604,-0.086 0.749,-0.256 0.146,-0.17 0.22,-0.458 0.22,-0.862 0,-0.219 -0.016,-0.406 -0.047,-0.561 -0.03,-0.155 -0.078,-0.281 -0.145,-0.379 -0.065,-0.098 -0.15,-0.169 -0.254,-0.215 -0.104,-0.045 -0.227,-0.068 -0.37,-0.068 h -0.153 v 2.341 z"
     inkscape:connector-curvature="0"
     style="fill:#009344" /><path
     id="path19-8"
     d="m -7.901861,46.22115 h 2.422 v 0.804 h -1.512 v 2.23 h 1.341 v 0.803 h -1.341 v 2.404 h 1.512 v 0.803 h -2.422 v -7.044 z"
     inkscape:connector-curvature="0"
     style="fill:#009344" /><path
     id="path5-1"
     d="m 6.0140587,47.019462 h 0.898 l 0.407,2.601 0.07,0.47 0.145,1.022 c 0.023,0.173 0.044,0.331 0.063,0.474 0.019,0.144 0.036,0.272 0.051,0.389 l 0.043,0.347 c 0.009,-0.07 0.016,-0.133 0.022,-0.188 0.006,-0.055 0.012,-0.101 0.018,-0.137 l 0.118,-0.816 0.153,-1.072 c 0.015,-0.098 0.028,-0.188 0.042,-0.27 0.014,-0.082 0.026,-0.154 0.037,-0.219 l 0.438,-2.601 h 0.85 l -1.327,7.044 h -0.723 l -1.305,-7.044 z"
     inkscape:connector-curvature="0"
     style="fill:#009344" /><path
     id="path7-2"
     d="m 9.7780587,47.019462 h 0.9110003 v 7.044 H 9.7780587 v -7.044 z"
     inkscape:connector-curvature="0"
     style="fill:#009344" /><path
     id="path9-51"
     d="m 11.641059,47.019462 h 1.235 c 0.966,0 1.449,0.625 1.449,1.875 0,0.478 -0.062,0.832 -0.188,1.063 -0.126,0.23 -0.348,0.406 -0.666,0.524 0.365,0.152 0.615,0.347 0.749,0.584 0.137,0.234 0.206,0.587 0.206,1.059 0,1.292 -0.532,1.938 -1.594,1.938 h -1.191 v -7.043 z m 0.854,3.102 c 0.355,0 0.602,-0.085 0.739,-0.256 0.138,-0.179 0.207,-0.494 0.207,-0.944 0,-0.76 -0.264,-1.14 -0.792,-1.14 h -0.07 -0.04 c -0.023,0 -0.038,0.001 -0.044,0.004 v 2.336 z m 0,3.129 c 0.375,0 0.635,-0.083 0.779,-0.25 0.144,-0.168 0.215,-0.471 0.215,-0.908 0,-0.45 -0.075,-0.765 -0.224,-0.944 -0.147,-0.183 -0.403,-0.273 -0.77,-0.273 v 2.375 z"
     inkscape:connector-curvature="0"
     style="fill:#009344" /><path
     id="path11-6"
     d="m 15.243059,47.019462 h 1.2 c 0.496,0 0.866,0.124 1.108,0.37 0.307,0.319 0.46,0.808 0.46,1.464 0,0.505 -0.081,0.91 -0.243,1.216 -0.162,0.306 -0.394,0.495 -0.694,0.568 l 1.244,3.426 h -0.924 l -1.239,-3.449 v 3.449 h -0.911 v -7.044 z m 0.911,3.121 c 0.353,0 0.603,-0.086 0.749,-0.256 0.146,-0.17 0.219,-0.458 0.219,-0.862 0,-0.219 -0.015,-0.406 -0.046,-0.561 -0.031,-0.155 -0.079,-0.281 -0.145,-0.379 -0.066,-0.098 -0.15,-0.169 -0.254,-0.215 -0.104,-0.045 -0.227,-0.068 -0.37,-0.068 h -0.153 v 2.341 z"
     inkscape:connector-curvature="0"
     style="fill:#009344" /><path
     id="path13-8"
     d="m 19.897059,47.019462 h 0.709 l 1.45,7.044 h -0.902 l -0.254,-1.373 h -1.34 l -0.258,1.373 h -0.876 l 1.471,-7.044 z m 0.871,4.936 -0.201,-1.122 c -0.134,-0.764 -0.244,-1.579 -0.329,-2.445 -0.041,0.423 -0.093,0.851 -0.158,1.284 -0.064,0.434 -0.14,0.894 -0.228,1.38 l -0.167,0.903 h 1.083 z"
     inkscape:connector-curvature="0"
     style="fill:#009344" /><path
     id="path15-6"
     d="m 21.817059,47.019462 h 2.965 v 0.831 h -1.021 v 6.213 h -0.893 v -6.213 h -1.051 v -0.831 z"
     inkscape:connector-curvature="0"
     style="fill:#009344" /><path
     id="path17-3"
     d="m 25.196059,47.019462 h 0.911 v 7.044 h -0.911 v -7.044 z"
     inkscape:connector-curvature="0"
     style="fill:#009344" /><path
     id="path19-87"
     d="m 30.445059,50.714462 c 0,1.244 -0.133,2.128 -0.398,2.65 -0.266,0.523 -0.711,0.785 -1.336,0.785 -0.656,0 -1.119,-0.281 -1.388,-0.844 -0.266,-0.551 -0.399,-1.528 -0.399,-2.934 0,-1.253 0.131,-2.14 0.394,-2.66 0.266,-0.522 0.716,-0.784 1.349,-0.784 0.566,0 0.987,0.202 1.262,0.606 0.181,0.271 0.312,0.655 0.395,1.154 0.079,0.465 0.121,1.139 0.121,2.027 z m -0.955,0.101 c 0,-1.22 -0.053,-2.028 -0.158,-2.427 -0.105,-0.401 -0.319,-0.603 -0.644,-0.603 -0.325,0 -0.54,0.185 -0.648,0.552 -0.104,0.371 -0.157,1.116 -0.157,2.235 0,1.031 0.055,1.746 0.166,2.145 0.114,0.377 0.327,0.565 0.64,0.565 0.307,0 0.517,-0.176 0.631,-0.529 0.113,-0.349 0.17,-0.996 0.17,-1.938 z"
     inkscape:connector-curvature="0"
     style="fill:#009344" /><path
     id="path21-0"
     d="m 31.258059,47.019462 h 0.85 l 0.906,2.811 c 0.263,0.794 0.495,1.641 0.696,2.541 -0.073,-0.544 -0.127,-1.037 -0.162,-1.479 -0.035,-0.44 -0.053,-0.855 -0.053,-1.245 v -2.628 h 0.911 v 7.044 h -0.853 l -1.019,-3.171 c -0.093,-0.295 -0.182,-0.598 -0.265,-0.907 -0.083,-0.311 -0.159,-0.636 -0.229,-0.977 -0.006,-0.042 -0.015,-0.094 -0.028,-0.155 -0.013,-0.061 -0.028,-0.131 -0.046,-0.21 0.009,0.079 0.017,0.147 0.022,0.203 0.006,0.057 0.01,0.104 0.013,0.144 l 0.048,0.717 0.052,0.871 c 0.004,0.049 0.006,0.108 0.008,0.178 10e-4,0.07 0.002,0.149 0.002,0.237 l 0.048,3.07 h -0.901 v -7.044 z"
     inkscape:connector-curvature="0"
     style="fill:#009344" /><path
     style="fill:#009344"
     inkscape:connector-curvature="0"
     d="m -29.168997,58.783014 c 0,1.244 -0.133,2.128 -0.398,2.65 -0.266,0.523 -0.711,0.785 -1.335,0.785 -0.657,0 -1.12,-0.281 -1.389,-0.844 -0.266,-0.551 -0.398,-1.528 -0.398,-2.934 0,-1.253 0.131,-2.14 0.394,-2.66 0.266,-0.522 0.715,-0.784 1.349,-0.784 0.566,0 0.987,0.202 1.261,0.606 0.181,0.271 0.312,0.655 0.394,1.154 0.082,0.465 0.122,1.139 0.122,2.027 z m -0.955,0.101 c 0,-1.22 -0.053,-2.028 -0.158,-2.427 -0.105,-0.401 -0.32,-0.603 -0.644,-0.603 -0.324,0 -0.54,0.185 -0.648,0.552 -0.105,0.371 -0.158,1.116 -0.158,2.235 0,1.031 0.056,1.746 0.167,2.145 0.114,0.377 0.327,0.565 0.64,0.565 0.307,0 0.517,-0.176 0.63,-0.529 0.115,-0.349 0.171,-0.996 0.171,-1.938 z"
     id="path3171" /><path
     style="fill:#009344"
     inkscape:connector-curvature="0"
     d="m -27.500953,54.927746 h 1.235 c 0.966,0 1.449,0.625 1.449,1.875 0,0.478 -0.062,0.832 -0.188,1.063 -0.126,0.23 -0.348,0.406 -0.666,0.524 0.365,0.152 0.615,0.347 0.749,0.584 0.137,0.234 0.206,0.587 0.206,1.059 0,1.292 -0.532,1.938 -1.594,1.938 h -1.191 v -7.043 z m 0.854,3.102 c 0.355,0 0.602,-0.085 0.739,-0.256 0.138,-0.179 0.207,-0.494 0.207,-0.944 0,-0.76 -0.264,-1.14 -0.792,-1.14 h -0.07 -0.04 c -0.023,0 -0.038,10e-4 -0.044,0.004 v 2.336 z m 0,3.129 c 0.375,0 0.635,-0.083 0.779,-0.25 0.144,-0.168 0.215,-0.471 0.215,-0.908 0,-0.45 -0.075,-0.765 -0.224,-0.944 -0.147,-0.183 -0.403,-0.273 -0.77,-0.273 v 2.375 z"
     id="path3173" /><text
     xml:space="preserve"
     style="font-size:6.37276745px;font-style:normal;font-variant:normal;font-weight:bold;font-stretch:normal;line-height:125%;letter-spacing:0px;word-spacing:0px;fill:#009344;fill-opacity:1;stroke:none;font-family:Futura-CondensedMedium;-inkscape-font-specification:Futura-CondensedMedium Bold"
     x="6.2244835"
     y="25.470682"
     id="text3145"
     sodipodi:linespacing="125%"
     transform="scale(0.91757135,1.0898335)"><tspan
       sodipodi:role="line"
       x="6.2244835"
       y="25.470682"
       id="tspan3149">AMBIENT TEMPERATURE</tspan></text>
<path
     id="path3153"
     d="M 47.744,-32.106342 H 6.153 c -1.799,0 -3.256,1.457 -3.256,3.256 v 22.7760004 c 0,1.797 1.457,3.256 3.256,3.256 h 41.591 c 1.799,0 3.256,-1.459 3.256,-3.256 V -28.850342 c 0,-1.799 -1.457,-3.256 -3.256,-3.256 z m 1.026,25.0400004 c 0,1.15 -0.934,2.084 -2.082,2.084 H 7.041 c -1.151,0 -2.083,-0.934 -2.083,-2.084 v -8.1840004 c 0,-1.15 0.932,-2.082 2.083,-2.082 h 14.746 c 0.973,1.049 2.355,1.688 3.871,1.688 0.545,0 1.084,-0.085 1.623,-0.258 0.859,-0.287 1.602,-0.79 2.199,-1.43 h 17.208 c 1.148,0 2.082,0.931 2.082,2.082 v 8.1840004 z"
     inkscape:connector-curvature="0"
     style="fill:#009344"
     inkscape:export-filename="/home/kgillespie/air_projects/air_everywhere/air_element_libraries/tmp006/element_code/getObjectTemperature.icon.png"
     inkscape:export-xdpi="187.44879"
     inkscape:export-ydpi="187.44879" /><path
     id="path3155"
     d="m 47.695,-25.625342 -18.611,5.989 c -0.379,1.007 -1.193,1.845 -2.312,2.219 -1.909,0.612 -4,-0.436 -4.613,-2.347 -0.591,-1.937 0.439,-4 2.365,-4.642 1.131,-0.327 2.293,-0.145 3.19,0.5 l 18.61,-5.99 c 1.164,-0.389 2.459,0.278 2.814,1.426 0.37,1.196 -0.279,2.457 -1.445,2.845 l 0.002,0 z m -3.256,-2.01 -17.818,5.752 c -0.387,-0.389 -0.948,-0.551 -1.467,-0.36 -0.763,0.254 -1.176,1.037 -0.92,1.797 0.224,0.742 1.037,1.177 1.798,0.923 0.535,-0.146 0.896,-0.63 0.974,-1.116 l 17.817,-5.751 c 0.341,-0.091 0.551,-0.456 0.432,-0.813 -0.092,-0.339 -0.476,-0.521 -0.816,-0.432 l 0,0 z"
     inkscape:connector-curvature="0"
     style="fill:#ffffff" /><text
     transform="scale(0.91757135,1.0898335)"
     sodipodi:linespacing="125%"
     id="text3157"
     y="-7.5961499"
     x="7.7650504"
     style="font-size:6.37276745px;font-style:normal;font-variant:normal;font-weight:bold;font-stretch:normal;line-height:125%;letter-spacing:0px;word-spacing:0px;fill:#009344;fill-opacity:1;stroke:none;font-family:Futura-CondensedMedium;-inkscape-font-specification:Futura-CondensedMedium Bold"
     xml:space="preserve"><tspan
       id="tspan3159"
       y="-7.5961499"
       x="7.7650504"
       sodipodi:role="line">OBJECT TEMPERATURE</tspan></text>
</svg>